<svg width="36" height="37" viewBox="0 0 36 37" fill="none" xmlns="http://www.w3.org/2000/svg">
<rect y="0.5" width="36" height="36" rx="18" fill="#023495"/>
<path fill-rule="evenodd" clip-rule="evenodd" d="M12 9.5C11.7348 9.5 11.4804 9.60038 11.2929 9.77906C11.1054 9.95773 11 10.2001 11 10.4528V14.2638C11 14.5165 11.1054 14.7588 11.2929 14.9375C11.4804 15.1162 11.7348 15.2165 12 15.2165H16V26.6496C16 26.9023 16.1054 27.1446 16.2929 27.3233C16.4804 27.502 16.7348 27.6024 17 27.6024H20C20.2652 27.6024 20.5196 27.502 20.7071 27.3233C20.8946 27.1446 21 26.9023 21 26.6496V15.2165H25C25.2652 15.2165 25.5196 15.1162 25.7071 14.9375C25.8946 14.7588 26 14.5165 26 14.2638V13.311C25.9999 13.0584 25.8946 12.8161 25.707 12.6374L25.05 12.0115C24.2143 11.2152 23.2221 10.5836 22.1302 10.1527C21.0382 9.72178 19.8679 9.49999 18.686 9.5H12Z" fill="#FFC300"/>
</svg>
