<svg width="24" height="24" viewBox="0 0 24 24" fill="none" xmlns="http://www.w3.org/2000/svg">
<path fill-rule="evenodd" clip-rule="evenodd" d="M18.71 17.5648C19.5069 16.7678 19.9546 15.6869 19.9546 14.5598C19.9546 13.4328 19.5069 12.3518 18.71 11.5548L12.17 5.01483C11.9824 4.82732 11.8769 4.57296 11.8768 4.30769C11.8767 4.04242 11.982 3.78797 12.1695 3.60033C12.357 3.41269 12.6114 3.30722 12.8767 3.30713C13.1419 3.30704 13.3964 3.41232 13.584 3.59983L20.124 10.1398C21.2963 11.3118 21.9549 12.9015 21.9551 14.5591C21.9553 16.2168 21.297 17.8066 20.125 18.9788C18.953 20.1511 17.3633 20.8098 15.7057 20.8099C14.0481 20.8101 12.4583 20.1518 11.286 18.9798L3.332 11.0248C2.48795 10.1806 2.01382 9.03574 2.01392 7.84198C2.01401 6.64822 2.48832 5.50338 3.3325 4.65933C4.17669 3.81528 5.3216 3.34115 6.51536 3.34124C7.70912 3.34134 8.85395 3.81565 9.698 4.65983L17.651 12.6128C18.1546 13.1315 18.4339 13.8275 18.4285 14.5504C18.4231 15.2732 18.1335 15.965 17.6223 16.4761C17.111 16.9872 16.4192 17.2766 15.6963 17.2818C14.9734 17.287 14.2775 17.0075 13.759 16.5038L6.513 9.25683C6.32536 9.06932 6.2199 8.81496 6.2198 8.54969C6.21971 8.28441 6.325 8.02997 6.5125 7.84233C6.70001 7.65469 6.95438 7.54922 7.21965 7.54913C7.48492 7.54904 7.73936 7.65432 7.927 7.84183L15.174 15.0888C15.3148 15.2298 15.5059 15.309 15.7052 15.3091C15.9044 15.3092 16.0955 15.2302 16.2365 15.0893C16.3775 14.9485 16.4567 14.7574 16.4568 14.5582C16.4569 14.3589 16.3778 14.1678 16.237 14.0268L8.284 6.07383C8.05183 5.84152 7.77617 5.65722 7.47276 5.53145C7.16936 5.40567 6.84415 5.34089 6.51571 5.34079C6.18727 5.3407 5.86203 5.4053 5.55855 5.5309C5.25508 5.65651 4.97931 5.84065 4.747 6.07283C4.27784 6.54173 4.01416 7.17781 4.01397 7.84112C4.01378 8.50444 4.2771 9.14066 4.746 9.60983L12.7 17.5638C13.497 18.3607 14.5779 18.8084 15.705 18.8084C16.8321 18.8084 17.913 18.3607 18.71 17.5638V17.5648Z" fill="#023495"/>
</svg>
