<svg width="24" height="24" viewBox="0 0 24 24" fill="none" xmlns="http://www.w3.org/2000/svg">
<rect x="4" y="6" width="16" height="11" fill="#FFC300"/>
<path d="M4.98942 5H19.0106C20.3333 5 21 5.68833 21 7.08833V16.9117C21 18.3 20.3333 19 19.0106 19H4.98942C3.66667 19 3 18.3 3 16.9117V7.08833C3 5.68833 3.66667 5 4.98942 5ZM11.9947 15.0333L19.127 8.58167C19.381 8.34833 19.582 7.81167 19.2646 7.33333C18.9577 6.855 18.3968 6.84333 18.0265 7.135L11.9947 11.6383L5.97355 7.135C5.60317 6.84333 5.04233 6.855 4.73545 7.33333C4.41799 7.81167 4.61905 8.34833 4.87302 8.58167L11.9947 15.0333Z" fill="#023495"/>
</svg>
