<svg width="24" height="24" viewBox="0 0 24 24" fill="none" xmlns="http://www.w3.org/2000/svg">
<path d="M5.26922 14.5394L4.33273 18.5811C4.30043 18.7288 4.30153 18.8819 4.33597 19.0292C4.37041 19.1764 4.43731 19.3141 4.53179 19.4322C4.62627 19.5503 4.74593 19.6458 4.88205 19.7118C5.01816 19.7777 5.16728 19.8124 5.31851 19.8133C5.38898 19.8204 5.45998 19.8204 5.53045 19.8133L9.59679 18.8768L17.4042 11.099L13.047 6.75171L5.26922 14.5394Z" fill="#023495"/>
<path d="M19.8588 7.20506L16.9507 4.29701C16.7595 4.10679 16.5008 4 16.2311 4C15.9614 4 15.7027 4.10679 15.5115 4.29701L13.8948 5.91369L18.247 10.2659L19.8637 8.64923C19.9583 8.55414 20.0332 8.44133 20.0842 8.31725C20.1352 8.19317 20.1612 8.06026 20.1607 7.92612C20.1602 7.79198 20.1333 7.65925 20.0815 7.53552C20.0297 7.4118 19.954 7.2995 19.8588 7.20506Z" fill="#023495"/>
</svg>
