<svg width="24" height="24" viewBox="0 0 24 24" fill="none" xmlns="http://www.w3.org/2000/svg">
<path d="M21 3L14.0571 9.94286M21 3H14.5714M21 3V9.42857M3 14.5714C3 16.2764 3.67729 17.9115 4.88288 19.1171C6.08848 20.3227 7.72361 21 9.42857 21C11.1335 21 12.7687 20.3227 13.9743 19.1171C15.1798 17.9115 15.8571 16.2764 15.8571 14.5714C15.8571 12.8665 15.1798 11.2313 13.9743 10.0257C12.7687 8.82015 11.1335 8.14286 9.42857 8.14286C7.72361 8.14286 6.08848 8.82015 4.88288 10.0257C3.67729 11.2313 3 12.8665 3 14.5714Z" stroke="#023495" stroke-width="2" stroke-linecap="round" stroke-linejoin="round"/>
</svg>
