<svg width="24" height="24" viewBox="0 0 24 24" fill="none" xmlns="http://www.w3.org/2000/svg">
<path fill-rule="evenodd" clip-rule="evenodd" d="M5.59296 5.584C9.07202 2.10985 14.7275 2.14679 18.2279 5.64713C21.7297 9.14897 21.7652 14.8078 18.2865 18.2865C14.8078 21.7652 9.14894 21.7297 5.64709 18.2279C3.5719 16.1527 2.71495 13.3216 3.08293 10.637C3.13449 10.2608 3.48125 9.99763 3.85742 10.0492C4.2336 10.1008 4.49676 10.4475 4.44519 10.8237C4.13355 13.0973 4.85884 15.4951 6.61937 17.2556C9.59347 20.2297 14.3817 20.2468 17.3142 17.3142C20.2467 14.3817 20.2297 9.59351 17.2556 6.6194C14.283 3.64681 9.49815 3.62827 6.56524 6.55627L7.25063 6.55972C7.63032 6.56163 7.93657 6.87097 7.93467 7.25066C7.93276 7.63035 7.62341 7.93661 7.24372 7.9347L4.9103 7.92297C4.5333 7.92108 4.22816 7.61593 4.22626 7.23894L4.21453 4.90552C4.21263 4.52582 4.51888 4.21648 4.89857 4.21457C5.27826 4.21266 5.58761 4.51891 5.58952 4.89861L5.59296 5.584ZM11.9374 7.58326C12.3171 7.58326 12.6249 7.89106 12.6249 8.27076V11.6527L14.7152 13.743C14.9837 14.0114 14.9837 14.4467 14.7152 14.7152C14.4467 14.9837 14.0114 14.9837 13.7429 14.7152L11.2499 12.2222V8.27076C11.2499 7.89106 11.5577 7.58326 11.9374 7.58326Z" fill="#023495"/>
</svg>
