<svg width="24" height="24" viewBox="0 0 24 24" fill="none" xmlns="http://www.w3.org/2000/svg">
<path d="M8 9.2C8 7.69151 8 6.93726 8.5207 6.46863C9.0414 6 9.87945 6 11.5556 6H12.4444C14.1205 6 14.9586 6 15.4793 6.46863C16 6.93726 16 7.69151 16 9.2V10.8C16 12.3085 16 13.0627 15.4793 13.5314C14.9586 14 14.1205 14 12.4444 14H11.5556C9.87945 14 9.0414 14 8.5207 13.5314C8 13.0627 8 12.3085 8 10.8V9.2Z" fill="#FFC300"/>
<path d="M12 2C7.8 2 4 5.22 4 10.2C4 13.38 6.45 17.12 11.34 21.43C11.72 21.76 12.29 21.76 12.67 21.43C17.55 17.12 20 13.38 20 10.2C20 5.22 16.2 2 12 2ZM12 12C10.9 12 10 11.1 10 10C10 8.9 10.9 8 12 8C13.1 8 14 8.9 14 10C14 11.1 13.1 12 12 12Z" fill="#023495"/>
</svg>
